PathFileType	4	(X/Y/Z)	Patient4_TMGait_0pt5_02_right_34.trc.trc
DataRate	CameraRate	NumFrames	NumMarkers	Units	OrigDataRate	OrigDataStartFrame	OrigNumFrames
76.923076923077	76.923076923077	6	33	mm	76.923076923077	71	       141
Frame#	Time	Sacral			L.Shoulder			Chest			R.Shoulder			Neck			R.ASIS			L.ASIS			R.Thigh.Superior			R.Thigh.Lateral			R.Thigh.Inferior			R.Patella			L.Thigh.Superior			L.Thigh.Lateral			L.Thigh.Inferior			L.Patella			L.Shank.Superior			L.Shank.Lateral			L.Shank.Inferior			R.Shank.Superior			R.Shank.Lateral			R.Shank.Inferior			R.Heel			R.Midfoot.Superior			R.Midfoot.Lateral			R.Toe			L.Heel			L.Midfoot.Lateral			L.Midfoot.Superior			L.Toe			L.Elbow			L.Wrist			R.Elbow			R.Wrist			
		X1	Y1	Z1	X2	Y2	Z2	X3	Y3	Z3	X4	Y4	Z4	X5	Y5	Z5	X6	Y6	Z6	X7	Y7	Z7	X8	Y8	Z8	X9	Y9	Z9	X10	Y10	Z10	X11	Y11	Z11	X12	Y12	Z12	X13	Y13	Z13	X14	Y14	Z14	X15	Y15	Z15	X16	Y16	Z16	X17	Y17	Z17	X18	Y18	Z18	X19	Y19	Z19	X20	Y20	Z20	X21	Y21	Z21	X22	Y22	Z22	X23	Y23	Z23	X24	Y24	Z24	X25	Y25	Z25	X26	Y26	Z26	X27	Y27	Z27	X28	Y28	Z28	X29	Y29	Z29	X30	Y30	Z30	X31	Y31	Z31	X32	Y32	Z32	X33	Y33	Z33	

71	45.340000000000	747.305284869755	1008.791018627702	515.531781503303	905.716821645094	1425.180056133821	305.874488423423	1029.212821887887	1354.106393189507	451.321466855443	975.146805290864	1434.139201311748	634.618967010826	929.241244838981	1489.532545814772	453.718978592506	980.156834617645	934.825094536988	609.301538144940	942.111030665835	954.251498418415	336.641719791444	983.368850576245	722.480664470176	578.744149359945	887.376839796800	626.514080914171	644.567150843501	943.923519026640	563.090167540901	558.935651018065	926.951472709816	476.857674502817	562.051641945462	1019.314820434971	769.658198599975	374.719305320560	962.293798056046	640.063577434327	308.303869117382	1062.344557354506	580.782475459127	373.025281007294	1080.775078719051	511.331332591538	376.609971009304	1063.363034451133	437.867145569824	366.674814032913	993.149600474290	310.749666363859	315.061964610324	1069.740579693267	208.892678435174	378.864661697771	889.278835339411	392.666991677863	570.858722403161	810.053865146824	297.793593907961	636.053663308457	832.907344673640	199.966028507697	569.919588869412	680.048274576654	43.571716462109	545.888559940839	852.174981098524	96.053394084442	575.327405290378	764.980216701943	36.623828746823	618.724685050214	972.909365906707	42.025095524004	602.717910746418	971.195138809914	39.626994698088	415.894322965693	1049.366404232930	39.018405650533	339.608621411939	1125.166960810091	108.062660504685	365.557623755723	1256.986879582021	67.063175845990	347.118761526226	769.996842426005	1088.237558030115	234.403681881352	740.504221922458	830.595231816638	248.498465824386	1100.333948150954	1115.370550598247	742.948887136125	1343.806246633052	1125.708933298295	669.929303199428	
72	45.353000000000	748.765287542834	1007.790670406662	513.249272308886	905.342082940998	1424.203985757252	303.308628730305	1029.011537960494	1354.076074864057	449.093526885150	974.049580955899	1433.898892892341	632.286152619957	928.345679663552	1488.968797959838	451.087666146020	981.575946677875	934.344127247831	607.869697906807	944.169158067051	953.153498226295	335.306310220404	983.560169253620	721.534834946183	578.036925220100	886.025491715996	626.216767156185	643.460037566875	942.243001487175	562.134848736406	558.362770003769	924.333251150990	475.837585672476	561.212669139409	1020.541417588246	767.100224303768	373.296964327591	961.168582823632	638.087922974730	307.828930586862	1061.114854313145	578.167241352255	372.329892300480	1078.039854205097	508.227647497571	376.559831822531	1060.268135376650	434.759976950010	366.747394300980	988.586994479641	308.368375293331	315.205336906503	1063.377567585472	205.662654926244	379.675140754556	885.799958051593	392.133212381724	570.140469889970	805.674582269682	298.182047207896	635.621716398786	827.566122221241	199.940642887792	569.725173983030	673.589856360438	44.224893254186	546.075184541355	845.894284901008	96.175484288699	575.470167105861	758.559543833055	36.908307924815	618.803491211153	966.469721949734	41.661174880972	602.825969978802	961.412362278174	38.891472765786	416.277046312814	1039.840144812118	37.339409294060	340.093492447604	1117.321581486465	104.068329090606	367.186208159675	1248.542140532499	59.881932107625	348.710051159378	771.102231073841	1086.700851558910	231.798850603033	742.149269426242	828.998576705864	246.014567822177	1098.355778220673	1114.209952484561	740.603325226440	1341.538091933251	1127.044224901591	667.459702970988	
73	45.366000000000	750.142111715821	1007.061758863567	510.938841188409	905.109501082391	1423.427979557220	300.719686936565	1028.909614534474	1354.214366042454	446.865324794125	973.066813229505	1433.879185537628	629.937089599610	927.600592723358	1488.615456093710	448.422079857352	982.925604302478	933.983721718584	606.230583704969	946.062047212013	952.418892634507	333.814011651417	983.910406383780	720.794906429890	577.118698020143	884.996212357791	626.074303589397	642.168924839636	940.974544561643	561.383374994411	557.601151676784	922.246214057638	474.876211623180	560.266425602285	1021.470250799964	764.868178849123	371.810258936420	960.150775394105	636.587606221916	307.046130592121	1059.730907664880	575.980346803431	371.666715039343	1075.339714087736	505.677357470578	376.415454648758	1057.311552329928	432.213278451163	366.677800541810	984.510003335192	306.442383672875	315.084933758395	1057.507340877925	203.029335708179	380.330988771402	882.728086556430	391.708261245069	569.330286488220	801.592607128612	298.807542963069	635.131711227328	822.453108046617	200.105823105279	569.534690840014	667.201067036562	45.264326914228	546.321651907541	839.779229672542	96.402259850592	575.693592082374	752.213616217558	37.386876916922	618.908505861786	960.096681910205	41.228879816066	602.942519175858	952.524234406015	38.318784272496	416.495984651605	1031.184553784962	36.170055307548	340.420922807731	1109.967211335056	100.968910560920	368.612963438654	1240.715943885648	54.263780867449	350.090224048897	773.025985653865	1085.068950817480	228.901020466751	745.043308086491	827.256627015884	243.074947831000	1095.773850247163	1112.924350362264	738.389086921490	1338.821638914342	1127.105990803064	665.331231749510	
74	45.379000000000	751.379100235718	1006.669547747977	508.619170183558	905.014712539270	1422.930497969172	298.151522575844	1028.907447161246	1354.537286130213	444.644859779650	972.277134574832	1434.114749062030	627.586344394572	927.043213629014	1488.520804379577	445.770523287836	984.134030888859	933.804346477660	604.363148848644	947.698306976090	952.103835721065	332.113516195090	984.355788187330	720.324913576393	575.938537277969	884.322991355823	626.115749744512	640.696302632278	940.173659089673	560.880354515758	556.634879909360	920.795727316072	473.987848765703	559.256725304994	1022.113684137050	763.154468797002	370.263671563107	959.313664313288	635.639775927828	305.981388286203	1058.277563913188	574.331502241155	370.992249082026	1072.748673570338	503.749264066354	376.144419875256	1054.531068346887	430.281968751269	366.455715052428	980.902787083075	305.049115025405	314.709760503725	1052.118018701398	201.047634804671	380.803437541531	880.143798599659	391.407894223741	568.455794964959	797.864140019136	299.702597988163	634.593597850951	817.619412188498	200.494533311330	569.365158095104	660.901838273894	46.769354944021	546.628982163534	833.863686415928	96.739552196433	575.997918054993	745.954082987350	38.100575767627	619.042373255721	953.794439804537	40.740214848503	603.062494343128	944.546748309638	37.928413492000	416.595835819490	1023.391627331428	35.476713882221	340.614712803808	1103.097740041359	98.787059865362	369.765913169002	1233.503527723301	50.249927582640	351.169908782416	775.741821582863	1083.450906445241	225.744643137391	749.193508399226	825.478515848387	239.698231561498	1092.600517469099	1111.582043051473	736.309019696413	1335.682954803052	1125.858622038278	663.545169862325	
75	45.392000000000	752.438976198354	1006.644746879841	506.288383470206	905.042602964229	1422.769385720520	295.641196911193	1028.994527079431	1355.046032199611	442.437412854846	971.732575667619	1434.617186979550	625.245770836695	926.687679307961	1488.711254858910	443.178254713069	985.142936799130	933.857574062074	602.263469054706	949.028148637742	952.218780253658	330.164930867380	984.843465429628	720.171615294517	574.473062388492	884.031724996973	626.353887317122	639.060117370635	939.891616635121	560.650367477024	555.470833320356	920.078022835375	473.174890311554	558.249522459858	1022.520114566084	762.076124915982	368.654816927596	958.669054288546	635.246270389498	304.684551445400	1056.800704095134	573.229518113293	370.244062118450	1070.278565068905	502.415370002719	375.721397892073	1051.895900626176	428.937984120702	366.085613201000	977.653074677418	304.189109406739	314.114999501373	1047.108586856914	199.689622072562	381.085991643997	878.119695458262	391.235408368164	567.556999346308	794.538005924220	300.885303086183	634.020608096645	813.112639390703	201.127561941083	569.235319633925	654.713817491834	48.802516329533	546.990171074016	828.176913370853	97.183725071852	576.377230132867	739.789698986014	39.082432309560	619.203663490604	947.559828708725	40.214159321900	603.178573332797	937.361467904282	37.712485657104	416.612327384236	1016.333701657771	35.177075823942	340.700665556641	1096.627075794363	97.437661242959	370.614278962356	1226.808542525535	47.693546520733	351.916205378742	779.190754879103	1081.950443664349	222.362600023046	754.596853116741	823.770096177209	235.914069285584	1088.852958735431	1110.252393723384	734.364305257547	1332.131526981061	1123.274884078782	662.100400585416	
76	45.405000000000	753.304152888323	1006.979381133769	503.925406723705	905.170872990215	1422.972707611113	293.212750147579	1029.150021757501	1355.727585082837	440.246245498341	971.444299831280	1435.372123869983	622.923884698697	926.522669749378	1489.186850123157	440.679716610174	985.913056698404	934.175936678662	599.947153282697	950.048099907717	952.728033138989	327.951791950291	985.345410610361	720.355671887134	572.732751940323	884.141569201390	626.780036076342	637.290821829195	940.175215937660	560.692168910245	554.137484272350	920.172581086978	472.425959589505	557.321481911399	1022.753403058910	761.645647844287	366.965512521108	958.142598084613	635.330330298606	303.218780437452	1055.289743737809	572.588942213065	369.350715860777	1067.879734283525	501.574478848042	375.134258609846	1049.320423308101	428.090157621502	365.584622278659	974.592775501574	303.795107616106	313.355492607819	1042.333381417532	198.865192400252	381.195760266604	876.716388735280	391.180561974293	566.679239774417	791.654469832843	302.357971160609	633.425122636644	808.975355927657	202.011635651832	569.161479969560	648.661043818851	51.405915886655	547.389283305915	822.742820789251	97.722553583111	576.819939259685	733.726792072229	40.356887133336	619.385630501986	941.381539098016	39.673771793142	603.281530809083	930.776387862051	37.643057613603	416.574243181346	1009.821019700209	35.164907957904	340.705825588121	1090.432477112515	96.763944389597	371.168616092305	1220.489284740918	46.322083223681	352.346384684069	783.282537711240	1080.653409144134	218.782403988973	761.235116545283	822.223196881454	231.762363252251	1084.555554235735	1108.998732971261	732.554156729785	1328.159974469257	1119.337821787438	660.993597384563	
